<svg xmlns="http://www.w3.org/2000/svg" width="17.234" height="19.424" viewBox="499.999 8009.5 17.234 19.424"><path d="M506.605 8021.057v-9.498c0-1.152.83-2.032 1.984-2.058a1.983 1.983 0 0 1 1.986 1.638c.107 3.321.006 6.644.04 9.97.098-.078.162-.12.216-.173.91-.906 1.82-1.811 2.726-2.72.437-.439.957-.707 1.579-.689.866.027 1.53.428 1.89 1.225.368.815.24 1.584-.342 2.27a1398.351 1398.351 0 0 1-7.842 7.82.368.368 0 0 1-.46.003c-2.578-2.533-5.118-5.11-7.687-7.653-.455-.454-.705-.98-.695-1.629.013-.972.78-1.855 1.74-2.006.759-.119 1.387.127 1.919.656.968.95 1.908 1.932 2.89 2.867l.056-.023Z" fill="#fff" fill-rule="evenodd" data-name="Path 1759"/></svg>