<svg xmlns="http://www.w3.org/2000/svg" width="32.65" height="28.968" viewBox="1832.594 6977.781 32.65 28.968"><path d="M1852.02 6995.645h-15.966c-1.937-.001-3.415-1.393-3.46-3.334-.037-1.688 1.205-3.069 2.755-3.339 5.582-.18 11.168-.01 16.76-.066-.133-.165-.204-.274-.293-.363-1.523-1.53-3.045-3.06-4.572-4.583-.737-.734-1.189-1.608-1.157-2.654.044-1.456.718-2.571 2.058-3.177 1.37-.619 2.662-.405 3.815.575 4.392 4.381 8.789 8.767 13.146 13.182.183.253.184.517.004.773-4.257 4.333-8.588 8.602-12.864 12.92-.762.765-1.646 1.185-2.738 1.17-1.634-.024-3.118-1.311-3.37-2.926-.2-1.276.212-2.331 1.102-3.225 1.596-1.629 3.246-3.208 4.818-4.859l-.039-.094Z" fill="#efa65c" fill-rule="evenodd" data-name="Path 1757"/></svg>