<?xml version="1.0" encoding="UTF-8" standalone="no"?>
<!DOCTYPE svg PUBLIC "-//W3C//DTD SVG 1.1//EN" "http://www.w3.org/Graphics/SVG/1.1/DTD/svg11.dtd">
<svg width="100%" height="100%" viewBox="0 0 50006 23781" version="1.1" xmlns="http://www.w3.org/2000/svg" xmlns:xlink="http://www.w3.org/1999/xlink" xml:space="preserve" xmlns:serif="http://www.serif.com/" style="fill-rule:evenodd;clip-rule:evenodd;stroke-linecap:round;stroke-linejoin:round;">
    <g transform="matrix(4.16667,0,0,4.16667,0,0)">
        <g transform="matrix(5.55556,0,0,5.55556,-102843,-150402)">
            <path d="M20671.7,28099.4C20634,28038.2 20678,27955.8 20660.3,27888.4C20648.4,27843.1 20641.8,27809.6 20613.7,27771.9C20574.7,27719.4 20531.7,27699.5 20477.5,27665.9C20408.7,27623.3 20323.3,27568.2 20278.2,27499.8C20258.1,27469.2 20240.3,27440.1 20221.9,27408.8C20179.9,27337.1 20145.3,27318.7 20064.3,27286C19959.4,27243.6 19849.5,27218 19742.6,27178.3C19680.5,27155.2 19624.1,27137 19559,27129.8C19503.8,27123.7 19451.5,27115.5 19396.3,27117C19344.9,27118.3 19294,27128.1 19242.5,27115.3C19150.8,27092.6 19082.3,27038.6 18988.6,27103.4C18961.4,27122.3 18925.4,27164.9 18902.2,27192.6C18875.2,27224.9 18884.8,27264.8 18867,27299.5C18817.6,27396.2 18700.9,27410.1 18640.4,27495.2C18610.9,27536.7 18565.4,27583.8 18548.5,27631.4C18537.5,27662.3 18537.4,27701.6 18532.3,27734.1C18526.7,27769.9 18505.8,27817.1 18513.7,27851.5" style="fill:none;fill-rule:nonzero;stroke:rgb(102,122,96);stroke-width:0.5px;"/>
        </g>
        <g transform="matrix(5.55556,0,0,5.55556,-102843,-150402)">
            <path d="M20638.9,28045.4C20647.7,27989.9 20647.7,27954.3 20627.6,27903.7C20616.1,27874.7 20595.8,27848.9 20587.3,27820.4C20570.9,27765.8 20581.8,27763.1 20522.9,27731.1C20481.6,27708.7 20447.9,27675.8 20408.7,27647.1C20368.4,27617.7 20328,27589.1 20291.2,27556.2C20242.1,27512.4 20229.8,27444.4 20180.8,27398C20135.6,27355.1 20067.5,27336.8 20010.6,27313.7C19942.3,27286 19876.3,27249.4 19806.8,27223.1C19748,27200.9 19682.6,27204.4 19621.9,27181.6C19575.9,27164.4 19535,27153.1 19486.1,27145.4C19385.7,27129.5 19288,27118 19188.5,27098.2C19141,27088.8 19073.5,27079.6 19032.6,27106.4C19023.5,27112.4 19005.9,27134.4 18996.7,27142.8C18980.9,27157.1 18967,27172.5 18953.1,27188.6C18899.1,27251.3 18853.5,27324.1 18804,27389.7C18769.8,27434.8 18713.4,27472.1 18673.2,27513C18652.4,27534 18638.4,27555 18623.7,27578.9C18603.8,27610.9 18596.9,27631.4 18587.1,27668.5C18575.4,27713.1 18539.3,27795.4 18561.2,27836.5" style="fill:none;fill-rule:nonzero;stroke:rgb(102,122,96);stroke-width:0.5px;"/>
        </g>
    </g>
</svg>
