<?xml version="1.0" encoding="UTF-8" standalone="no"?>
<!DOCTYPE svg PUBLIC "-//W3C//DTD SVG 1.1//EN" "http://www.w3.org/Graphics/SVG/1.1/DTD/svg11.dtd">
<svg width="100%" height="100%" viewBox="0 0 12092 4875" version="1.1" xmlns="http://www.w3.org/2000/svg" xmlns:xlink="http://www.w3.org/1999/xlink" xml:space="preserve" xmlns:serif="http://www.serif.com/" style="fill-rule:evenodd;clip-rule:evenodd;stroke-linecap:round;stroke-linejoin:round;">
    <g transform="matrix(5.55556,0,0,5.55556,-102754,-126232)">
        <path d="M18496,22814.7C18542.8,22869.3 18512.2,22957.6 18540.2,23021.3C18559.1,23064.3 18570.9,23096.3 18604.5,23129.2C18651.3,23174.9 18696.8,23187.8 18755.7,23212.5C18830.2,23243.9 18923.3,23284.9 18978.5,23345.4C19003.1,23372.5 19025.2,23398.4 19048.3,23426.5C19101,23490.7 19138,23503.5 19223.1,23523.1C19333.5,23548.6 19445.9,23556.7 19557.8,23579.1C19622.7,23592.2 19681.3,23601.4 19746.6,23598.3C19802.2,23595.7 19855.1,23595.6 19909.4,23585.6C19959.9,23576.2 20008.6,23558.5 20061.6,23563.1C20155.6,23571.2 20231.8,23613.9 20314.1,23535.2C20338.1,23512.3 20367,23464.6 20385.5,23433.6C20407.2,23397.4 20391.4,23359.5 20403.6,23322.4C20437.3,23219.2 20550.4,23187.2 20596.8,23093.7C20619.5,23048.1 20657,22994.4 20666.3,22944.8C20672.3,22912.6 20666.3,22873.8 20666.2,22840.8C20666.1,22804.6 20679.4,22754.8 20666.2,22722" style="fill:none;fill-rule:nonzero;stroke:rgb(101,123,95);stroke-width:0.5px;"/>
    </g>
    <g transform="matrix(5.55556,0,0,5.55556,-102754,-126232)">
        <path d="M18536.8,22863C18536.8,22919.1 18542.4,22954.3 18570.2,23001.1C18586.1,23028 18610.1,23050.3 18623,23077.1C18647.7,23128.4 18637.4,23132.8 18700.6,23155.2C18744.9,23170.9 18783.3,23198.2 18826.5,23220.3C18870.9,23243.1 18915.3,23265 18956.8,23291.7C19012.1,23327.3 19034.9,23392.5 19090.6,23430.7C19141.9,23466 19212,23473.4 19271.9,23487.3C19343.6,23504 19414.6,23529.8 19487.4,23544.9C19548.9,23557.7 19612.9,23544 19676.4,23557C19724.6,23566.8 19766.7,23571.5 19816.3,23571.5C19917.9,23571.5 20016.2,23567.6 20117.5,23571.5C20165.9,23573.4 20234.1,23572 20270.2,23539.1C20278.3,23531.7 20292.3,23507.2 20300.1,23497.5C20313.4,23480.9 20324.8,23463.6 20335.9,23445.5C20379.4,23375.1 20413,23296 20451.8,23223.5C20478.5,23173.6 20528.4,23127.9 20561.7,23081.3C20578.9,23057.3 20589.4,23034.4 20600.3,23008.5C20614.8,22973.7 20618.5,22952.4 20622.3,22914.2C20626.9,22868.3 20649.7,22781.4 20621.7,22744.3" style="fill:none;fill-rule:nonzero;stroke:rgb(101,123,95);stroke-width:0.5px;"/>
    </g>
</svg>
